<svg xmlns="http://www.w3.org/2000/svg" viewBox="0 0 120 60">
  <path d="M42.91766 27.837012c-.000812-.248562-.0066-.495787-.01771-.741826V13.067929l-3.877953 3.877954c-3.173889-3.884969-8.002194-6.366347-13.410308-6.366347-5.628071 0-10.628048 2.686394-13.788731 6.846701l6.356444 6.423297c.622932-1.152066 1.507874-2.14158 2.574887-2.888937 1.109728-.865998 2.682105-1.574067 4.857193-1.574067.262767 0 .465582.0307.614599.08855 2.694937.212706 5.030927 1.699975 6.406376 3.858641l-4.499402 4.499403c5.699051-.02237 12.137203-.03549 14.784105.0029" style="fill:#1c3aa9;stroke-width:.20311143" transform="translate(34.414614 -6.6747405)"/>
  <path d="M25.510589 10.580155c-.248563.000813-.495789.0066-.741826.01771H10.741505l3.877955 3.877955c-3.88497 3.173888-6.3663473 8.002192-6.3663473 13.410307 0 5.628071 2.6864363 10.628048 6.8467013 13.78873l6.423296-6.356451c-1.152066-.622932-2.14158-1.507875-2.888935-2.574888-.865959-1.109728-1.574069-2.682103-1.574069-4.857193 0-.262767.0307-.46558.08855-.614597.212705-2.694937 1.699976-5.03093 3.85864-6.406378l4.499404 4.499403c-.02237-5.69905-.03553-12.137203.0029-14.784106" style="fill:#4285f4;stroke-width:.20311143" transform="translate(34.414614 -6.6747405)"/>
  <path d="M8.2537317 27.885708c.0008328.248563.00656.495788.017703.741826v14.027257l3.8779543-3.877954c3.173889 3.884969 8.002193 6.366347 13.410308 6.366347 5.62807 0 10.628047-2.686395 13.788731-6.846701l-6.356443-6.423298c-.622935 1.152069-1.507875 2.141581-2.57489 2.888937-1.109726.866001-2.682103 1.574069-4.857192 1.574069-.262768 0-.46558-.0307-.614597-.08855-2.694937-.212705-5.03093-1.699976-6.406376-3.858642l4.499401-4.499401c-5.69905.02237-12.137203.03549-14.7841043-.0029" style="fill:#ababab;stroke-width:.20311143" transform="translate(34.414614 -6.6747405)"/>
  <path d="M37.146684 43.273729c-.649857 0-1.23247.123251-1.747903.369733-.5154.240897-.95236.58544-1.310911 1.033603-.352941.448168-.624639.991614-.815138 1.630209-.184873.633037-.27731 1.341703-.27731 2.125986v2.260471c0 .789882.09243 1.501387.27731 2.134446.190472.633043.459379 1.173626.80674 1.621813.34736.448188.767487.792681 1.260463 1.033602.492975.240921 1.047597.361343 1.663865.361343.633043 0 1.187683-.09243 1.663862-.277312.481786-.184867.885117-.450974 1.210078-.798276.324923-.352939.574222-.778685.747892-1.277322.17927-.498595.285715-1.064391.319325-1.697456h-1.554633c-.03922.487391-.106447.904777-.201681 1.252067-.09524.341738-.23529.624644-.420165.848726-.179269.218492-.41456.380952-.705905.487396-.285709.100836-.63866.151246-1.058793.151246-.448177 0-.829133-.09803-1.142833-.294114-.313719-.201667-.568618-.476177-.764689-.823527-.190472-.347339-.330526-.753488-.420164-1.218472-.08403-.464989-.126041-.966358-.126041-1.504184V48.41644c0-.577011.05041-1.100847.151262-1.571429.106447-.470575.266101-.871119.478986-1.201679.212884-.330533.481785-.585431.80674-.764687.324922-.184869.711502-.277304 1.159628-.277304.375346 0 .697443.05598.966356.168072.268907.106431.492989.274504.672252.504185.179269.224087.316524.509797.41176.857123.09524.347342.159662.76189.193272 1.243668h1.554631c-.02801-.661053-.131652-1.246467-.31092-1.756301-.179269-.509803-.428568-.938366-.747892-1.285717-.319325-.347331-.708704-.610639-1.168026-.789882-.453774-.179275-.977553-.268907-1.571427-.268907Zm37.949382 0c-.649857 0-1.232471.123251-1.747901.369733-.515402.240897-.952362.58544-1.310914 1.033603-.352932.448168-.624644.991614-.815138 1.630209-.184867.633037-.277295 1.341703-.277295 2.125986v2.260471c0 .789882.09243 1.501387.277295 2.134446.190475.633043.459385 1.173626.806741 1.621813.347343.448176.767489.792681 1.260464 1.033602.492988.240896 1.047595.361343 1.663864.361343.633035 0 1.187617-.09243 1.663864-.277312.481778-.184867.885116-.450974 1.210077-.798276.324927-.352939.57422-.778685.747893-1.277322.179274-.498595.285718-1.064391.319322-1.697456H77.33977c-.03919.487391-.106447.904777-.201681 1.252067-.09524.341738-.235291.624644-.420158.848726-.179271.218492-.414561.380952-.705906.487396-.285706.100836-.638661.151246-1.058794.151246-.448175 0-.829134-.09803-1.142832-.294114-.31372-.201674-.568624-.476185-.764689-.823535-.190471-.347338-.330525-.753488-.420164-1.218472-.08403-.464989-.126041-.966358-.126041-1.504184v-2.277267c0-.577011.05044-1.100847.151261-1.571429.106448-.470575.266102-.871119.478993-1.201679.212878-.330532.481785-.585431.806673-.764686.32493-.18487.711504-.277304 1.15963-.277304.37534 0 .697443.05598.966356.168071.268907.106432.492995.274504.67225.504185.179263.224087.316521.509797.411755.857124.09524.347342.159664.761889.19328 1.243668h1.554567c-.02806-.661054-.131652-1.246468-.31092-1.756302-.179269-.509803-.428563-.938365-.747894-1.285716-.319328-.347356-.708703-.610639-1.168026-.789882-.453768-.179276-.977551-.268907-1.571425-.268907Zm-29.091854.168065-3.941131 12.235007h1.579824l.949562-3.193241h4.134403l.966358 3.193241h1.579824l-3.94953-12.235007zm6.932449 0v12.235007h1.537773V50.88694h2.361307c.588232 0 1.109244-.08123 1.56303-.243694.453775-.168065.83473-.408955 1.142834-.722701.313719-.313726.54901-.700243.705842-1.159628.162459-.464982.243694-.99155.243694-1.579824 0-.543411-.08123-1.041999-.243694-1.495785-.156866-.459385-.389357-.854326-.697445-1.184884-.308122-.336127-.691846-.596631-1.151231-.781485-.453774-.184867-.974755-.277304-1.56303-.277304zm8.730929 0V44.7695h3.210034v10.907301h1.537771V44.7695h3.218435v-1.327706zm19.302322 0v12.235007h1.537775v-5.655382h4.924284v5.655382h1.546169V43.441794h-1.546169v5.260442h-4.924284v-5.260442zm13.840087 0-3.941133 12.235007h1.579823l.94956-3.193241h4.13441l.96636 3.193241h1.579821l-3.949531-12.235007ZM54.474307 44.7695h2.361308c.375345 0 .694645.06718.957961.201678.268897.134443.487386.313711.655454.537799.173664.224086.299714.484584.378145.781483.08403.291308.126056.593828.126056.907574 0 .347335-.04201.666651-.126056.957959-.07844.285715-.204481.535014-.378145.747893-.168068.207279-.386551.36974-.655454.48739-.263304.117639-.582629.176462-.957961.176462h-2.361308zm-7.81483.823535 1.672263 5.562944h-3.336062zm48.805792 0 1.67226 5.562944h-3.33606zm-72.384514.823535c-.38655 0-.719901.09803-1.000011.294111-.274505.196079-.504198.462178-.689046.798279l-.0252-.924368h-1.445337v9.092278h1.487388v-6.504299c.140054-.386558.338931-.691845.596628-.915973.263301-.224082.596635-.336124 1.000011-.336124.128846 0 .243695.0057.34453.01679.100835.0057.210078.01961.327726.04199l-.0083-1.445335c-.02241-.01125-.05883-.02245-.109253-.03365-.04481-.01685-.09524-.03085-.151262-.04199-.05602-.01125-.114849-.01967-.17647-.02527-.05602-.01125-.106432-.01679-.151261-.01679zm4.999926 0c-.431368 0-.848728.07562-1.252065.226888-.403357.151262-.76189.40055-1.075589.747894-.308114.341727-.557414.789878-.747892 1.3445-.190472.549008-.285709 1.224075-.285709 2.025212v1.025205c0 .694645.08123 1.296916.243696 1.806685.162461.509771.394952.932767.697443 1.268924.308121.330522.680647.577017 1.117639.739495.436968.162468.927169.243696 1.470593.243696.392155 0 .742294-.03925 1.050396-.117639.31372-.07844.59103-.179277.831933-.302523.240896-.128862.448176-.274506.62184-.436966.173664-.162464.322123-.330529.44537-.504198l-.773086-.941166c-.123251.151246-.254897.291314-.394953.420163-.140054.123236-.294112.232493-.462178.327724-.168065.08963-.35294.159668-.554614.210086-.201675.05038-.428569.07563-.680649.07563-.689046 0-1.218474-.221288-1.588223-.663853-.364142-.442569-.546211-1.151229-.546211-2.126047v-.210086h5.075568v-.86552c0-.694646-.05883-1.308115-.17647-1.840344-.117639-.53221-.305314-.980353-.563019-1.344505-.257696-.364141-.58823-.638659-.991612-.823532-.403357-.190481-.890715-.285709-1.462195-.285709zm0 1.27732c.324923 0 .59383.05878.80674.176473.212877.117639.380944.2829.504197.495777.128847.212889.221283.4678.277304.76469.06162.291307.100836.613432.11764.966357v.201675h-3.579783c.02241-.509803.08403-.932766.184873-1.268925.100836-.336155.232493-.602238.394954-.798276.168065-.201675.361337-.341726.579827-.420158.218483-.07844.456573-.117639.714302-.117639z" style="fill:#a6a6a6;stroke-width:.31311598" transform="translate(0 .2501355)"/>
</svg>
