<svg width="30" height="30" viewBox="0 0 30 30" fill="#F8F9FA" xmlns="http://www.w3.org/2000/svg">
<path d="M25.3963 5.8958C23.4842 5.01832 21.4337 4.37183 19.2899 4.00155C19.2508 3.99441 19.2118 4.01227 19.1917 4.04798C18.928 4.51707 18.6359 5.12904 18.4314 5.61004C16.1255 5.26477 13.8315 5.26477 11.5729 5.61004C11.3683 5.11834 11.0656 4.51707 10.8007 4.04798C10.7806 4.01346 10.7416 3.9956 10.7026 4.00155C8.55989 4.37064 6.50945 5.01713 4.59617 5.8958C4.57961 5.90294 4.56541 5.91486 4.55599 5.93032C0.66674 11.7416 -0.398688 17.4101 0.123975 23.0083C0.12634 23.0357 0.141712 23.0619 0.162998 23.0786C2.72901 24.9633 5.21463 26.1074 7.6541 26.8658C7.69314 26.8777 7.73451 26.8635 7.75935 26.8313C8.33641 26.0432 8.8508 25.2121 9.29185 24.3382C9.31787 24.287 9.29303 24.2263 9.23983 24.206C8.42391 23.8965 7.647 23.5191 6.89966 23.0905C6.84055 23.0559 6.83582 22.9714 6.8902 22.9309C7.04747 22.813 7.20477 22.6904 7.35494 22.5666C7.38211 22.544 7.41997 22.5392 7.45192 22.5535C12.3616 24.7954 17.6769 24.7954 22.5287 22.5535C22.5606 22.538 22.5985 22.5428 22.6268 22.5654C22.7771 22.6892 22.9343 22.813 23.0928 22.9309C23.1472 22.9714 23.1436 23.0559 23.0845 23.0905C22.3372 23.5274 21.5602 23.8965 20.7431 24.2049C20.6899 24.2251 20.6663 24.287 20.6923 24.3382C21.1428 25.2109 21.6572 26.0419 22.2236 26.8301C22.2473 26.8635 22.2898 26.8777 22.3289 26.8658C24.7802 26.1074 27.2658 24.9633 29.8318 23.0786C29.8543 23.0619 29.8685 23.0369 29.8708 23.0095C30.4964 16.5374 28.8231 10.9154 25.4353 5.93151C25.427 5.91486 25.4128 5.90294 25.3963 5.8958ZM10.025 19.5996C8.54687 19.5996 7.32892 18.2423 7.32892 16.5755C7.32892 14.9086 8.52325 13.5514 10.025 13.5514C11.5386 13.5514 12.7448 14.9205 12.7211 16.5755C12.7211 18.2423 11.5268 19.5996 10.025 19.5996ZM19.9934 19.5996C18.5153 19.5996 17.2974 18.2423 17.2974 16.5755C17.2974 14.9086 18.4917 13.5514 19.9934 13.5514C21.507 13.5514 22.7132 14.9205 22.6896 16.5755C22.6896 18.2423 21.507 19.5996 19.9934 19.5996Z" fill="white"/>
</svg>
