<svg width="30" height="23" viewBox="0 0 30 23" fill="#F8F9FA" xmlns="http://www.w3.org/2000/svg">
<path d="M25.3963 1.8958C23.4842 1.01832 21.4337 0.371825 19.2899 0.00155324C19.2508 -0.00559289 19.2118 0.0122657 19.1917 0.0479837C18.928 0.517072 18.6359 1.12904 18.4314 1.61004C16.1255 1.26477 13.8315 1.26477 11.5729 1.61004C11.3683 1.11834 11.0656 0.517072 10.8007 0.0479837C10.7806 0.0134574 10.7416 -0.00440116 10.7026 0.00155324C8.55989 0.370642 6.50945 1.01713 4.59617 1.8958C4.57961 1.90294 4.56541 1.91486 4.55599 1.93032C0.66674 7.74164 -0.398688 13.4101 0.123975 19.0083C0.12634 19.0357 0.141712 19.0619 0.162998 19.0786C2.72901 20.9633 5.21463 22.1074 7.6541 22.8658C7.69314 22.8777 7.73451 22.8635 7.75935 22.8313C8.33641 22.0432 8.8508 21.2121 9.29185 20.3382C9.31787 20.287 9.29303 20.2263 9.23983 20.206C8.42391 19.8965 7.647 19.5191 6.89966 19.0905C6.84055 19.0559 6.83582 18.9714 6.8902 18.9309C7.04747 18.813 7.20477 18.6904 7.35494 18.5666C7.38211 18.544 7.41997 18.5392 7.45192 18.5535C12.3616 20.7954 17.6769 20.7954 22.5287 18.5535C22.5606 18.538 22.5985 18.5428 22.6268 18.5654C22.7771 18.6892 22.9343 18.813 23.0928 18.9309C23.1472 18.9714 23.1436 19.0559 23.0845 19.0905C22.3372 19.5274 21.5602 19.8965 20.7431 20.2049C20.6899 20.2251 20.6663 20.287 20.6923 20.3382C21.1428 21.2109 21.6572 22.0419 22.2236 22.8301C22.2473 22.8635 22.2898 22.8777 22.3289 22.8658C24.7802 22.1074 27.2658 20.9633 29.8318 19.0786C29.8543 19.0619 29.8685 19.0369 29.8708 19.0095C30.4964 12.5374 28.8231 6.91538 25.4353 1.93151C25.427 1.91486 25.4128 1.90294 25.3963 1.8958ZM10.025 15.5996C8.54687 15.5996 7.32892 14.2423 7.32892 12.5755C7.32892 10.9086 8.52325 9.55137 10.025 9.55137C11.5386 9.55137 12.7448 10.9205 12.7211 12.5755C12.7211 14.2423 11.5268 15.5996 10.025 15.5996ZM19.9934 15.5996C18.5153 15.5996 17.2974 14.2423 17.2974 12.5755C17.2974 10.9086 18.4917 9.55137 19.9934 9.55137C21.507 9.55137 22.7132 10.9205 22.6896 12.5755C22.6896 14.2423 21.507 15.5996 19.9934 15.5996Z" fill="white"/>
</svg>
