<svg stroke="currentColor" fill="#F8F9FA" stroke-width="0" viewBox="0 0 24 24" height="1em" width="1em" xmlns="http://www.w3.org/2000/svg">
<path d="M16.3886 16.9122C16.7884 17.0683 17.1789 17.2468 17.5585 17.447C18.0289 17.6951 18.2088 18.277 17.9604 18.7467C17.7119 19.2164 17.1292 19.3961 16.6588 19.148C15.3056 18.4344 13.796 18.0562 12.2297 18.0562C7.66111 18.0562 3.76406 21.3006 2.90922 25.7219C2.80838 26.2434 2.30317 26.5846 1.78084 26.4839C1.25848 26.3832 0.9168 25.8788 1.01764 25.3572C1.7732 21.4495 4.50065 18.3073 8.0723 16.913C5.47243 15.4587 3.7153 12.6824 3.7153 9.49652C3.7153 4.80387 7.52748 1 12.2297 1C16.9319 1 20.7441 4.8039 20.7441 9.49652C20.7441 12.6818 18.9876 15.4576 16.3886 16.9122ZM18.8176 9.49652C18.8176 5.8666 15.8682 2.92366 12.2297 2.92366C8.59117 2.92366 5.64181 5.86656 5.64181 9.49652C5.64181 13.1264 8.59117 16.0693 12.2297 16.0693C15.8682 16.0693 18.8176 13.1264 18.8176 9.49652ZM19.2489 21.2614V18.3768C19.2486 18.206 19.294 18.0382 19.3804 17.8908C19.4641 17.7481 19.5831 17.6292 19.7261 17.5456C19.8737 17.4593 20.0417 17.414 20.2128 17.4143C20.3838 17.414 20.5518 17.4593 20.6995 17.5456C20.8424 17.6292 20.9614 17.7481 21.0452 17.8908C21.1315 18.0382 21.1769 18.206 21.1766 18.3768V21.2614H24.0368C24.5688 21.2614 25 21.692 25 22.2232C25 22.7544 24.5688 23.185 24.0368 23.185H21.1766V26.0376C21.1769 26.2083 21.1315 26.3761 21.0451 26.5235C20.9614 26.6662 20.8424 26.7851 20.6995 26.8687C20.5518 26.955 20.3838 27.0003 20.2128 27C20.0417 27.0003 19.8737 26.955 19.7261 26.8687C19.5831 26.7851 19.4641 26.6662 19.3804 26.5235C19.294 26.3761 19.2486 26.2083 19.2489 26.0376V23.185H16.3566C15.8247 23.185 15.3934 22.7544 15.3934 22.2232C15.3934 21.692 15.8247 21.2614 16.3566 21.2614H19.2489Z" fill="#FAFAFA" stroke="#FAFAFA" stroke-width="0.5"/>
</svg>
